<svg xmlns="http://www.w3.org/2000/svg" viewBox="0 0 462.41 265.89"><defs><style>.a{isolation:isolate;}.b{fill:#505937;}.c{fill:#959750;}.d{fill:#9d9d9c;}.e{fill:#7e8236;}.f{fill:#70732e;}.g{mix-blend-mode:multiply;}.h{fill:#c6cab1;}.i{fill:#8a8a7b;}.j{fill:#7a7e5b;}.k{opacity:0.49;}.k,.m,.n,.q{mix-blend-mode:soft-light;}.l{fill:#fff;}.m{opacity:0.28;}.n{opacity:0.63;}.o{fill:#616529;}.p{fill:#a8ac96;}</style></defs><g class="a"><path class="b" d="M87.79,78c0-.15,0-.24-.06-.42l-.19-1.25a4.24,4.24,0,0,0-2.17-3.14l-1.69-3.37v2.8l-.12,0a3.88,3.88,0,0,1-.49-.24h0L81.74,71l-1.5,1.2a3.85,3.85,0,0,1-1.35.64,15.24,15.24,0,0,1-2.48.46,17.65,17.65,0,0,0-5.34,1.22l-.52.25-.32.47a22.77,22.77,0,0,0-2.38,4.24q-.75,1.78-1.32,2.94l-.42.83.33.86a3.27,3.27,0,0,1,.22.91c0,.11,0,.21,0,.31a4.65,4.65,0,0,0-.48.84A3.92,3.92,0,0,0,66,88.35a8,8,0,0,1-.13.89c-.11.59-.27,1.29-.51,2.21a13.35,13.35,0,0,1-.46,1.81l-.62.41v1.14a8.54,8.54,0,0,1-.71,3.26q-3.18,7.84-5.85,13.9c-1.76,4-3.21,7-4.47,9.29-.48,1.38-.89,2.64-1.24,3.78-.91-1.34-1.79-2.64-2.63-3.92s-1.71-2.61-2.46-3.78H47l-2-3.25c-.74-1.18-1.33-2.16-1.78-3A21.82,21.82,0,0,0,41.83,109a5.21,5.21,0,0,0-1.66-1.33l-.32-.19c-.67-1.2-1.32-2.25-2-3.17s-1.2-1.75-1.5-2.14l-.85-1.88c-.25-.55-.49-1.07-.69-1.46q-2.68-6.08-4.25-9.45l-4.06-8.61v1.92l-.85-1.4q-2.16-3.52-3.84-5.9L21.53,75a12.56,12.56,0,0,0-4.93-2.71,14.52,14.52,0,0,0-5.94-.41,13,13,0,0,0-4.9,1.58A9.62,9.62,0,0,0,2.36,77l-.59,1,5.55,10c1.16,2.09,1.85,3.37,2.22,4.06,3.71,5.42,6.52,9.29,8.49,11.71.9,1.25,1.62,2.21,2.17,2.88a3.92,3.92,0,0,1,.55.79l.44.81a19.47,19.47,0,0,1,1.68,2.14c.37.57.6,1,.55.75l.85,3a28.09,28.09,0,0,0-.67,3c-.21.74-.39,1.32-.55,1.74l-1.35,1.28.46,1.36a5.7,5.7,0,0,1,.25,1.11c0,.31.07.6.12.88a36.78,36.78,0,0,0-3.88,8.93l-.1.43.07.43a19.65,19.65,0,0,1,.23,2c0,.51.09,1,.15,1.4a26.28,26.28,0,0,0-2,4.8,24.59,24.59,0,0,0-1.13,5.17l-2.63,5.5c-.7,1.45-1.27,2.66-1.71,3.62a12.28,12.28,0,0,0-1,3.14c-.21,1.2-.46,2.31-.73,3.33L9,165.65c-.23,2.23-.47,4.28-.69,6.13s-.46,3.55-.7,5.24q-.25,3.24-.35,5.75c0,.95-.09,1.61-.15,2.07A4.78,4.78,0,0,0,5.26,187l-.78.74-.29.8a14.13,14.13,0,0,0-.81,3.92,24.38,24.38,0,0,0,.12,3.92c1.1,5.95,4.82,6.84,6.93,6.84a10.13,10.13,0,0,0,2.86-.61l.47-.21A21.69,21.69,0,0,0,18.12,199a9.18,9.18,0,0,0,2.47-3.59l.09-3c0-.85,0-1.71.08-2.59s.1-1.92.1-2.85v-1.4l.5-.51v1.41l.39-1.89a7.43,7.43,0,0,0,1.46-5.56l.27-2.74,2.08-10c.24-1.12.46-2.24.67-3.39q.25-1.46.42-2.82l5.3-7.33.36-.85c.24-1.25.45-2.57.63-4,.14-1.11.3-2.15.49-3.12a23.28,23.28,0,0,0,2.2-5.46,11.27,11.27,0,0,1,.57-1.52c2,2.93,7.34,12.43,21.89,42.44,1.16,2.17,2.24,4.38,3.21,6.58s1.88,4.41,2.74,6.52l.22.54.47.36A19,19,0,0,1,66.8,196a7.21,7.21,0,0,1,.92,1.07l.38,1.9.38.43a6.58,6.58,0,0,0,3.1,1.83,32.07,32.07,0,0,0,3.71.86c1,.11,1.85.22,2.44.32a12.56,12.56,0,0,0,2.28.21h1l4.27-5.33,0-.83c-.14-2.12-1.3-5.12-3.53-9.15-2.49-4.7-3-6.57-3.15-7.28l-.08-.56-.36-.44a7.24,7.24,0,0,0-1.52-1.37l-.19-.14a5.74,5.74,0,0,0-1.21-2.71l-.22-.43a.61.61,0,0,0,0-.12l.5-.51-1.22-1.49a3.87,3.87,0,0,0-1-.82L73,170.8a12.28,12.28,0,0,0-.63-1.49l-4-7.8v1.17q-.35-.69-.66-1.35a21,21,0,0,1-1.87-5.84,13.55,13.55,0,0,1-.3-2.77,9.49,9.49,0,0,1,1.73-6l.75-1.36-.6-1.18c0-.05,0-.1,0-.14A27.16,27.16,0,0,0,69,140.7c.48-1.15.89-2.19,1.24-3.14l.22-.58-.13-.6a8.72,8.72,0,0,1,.14-3.27c.3-1.57.67-3.1,1.08-4.48.81-2.28,1.46-4.16,1.93-5.65a16.88,16.88,0,0,0,.76-3.35c10.46-22.08,11.88-28.7,11.8-31.5A64.4,64.4,0,0,0,87.75,81l1.5-.16ZM73,174.46l.15,0-.41.41Z"></path><path class="b" d="M136.94,81.93v-.15l.58-.57-.58-1.34a4.4,4.4,0,0,0-.58-1c.09-.19.18-.37.26-.55a4.07,4.07,0,0,0,.22-2.8l-.42-1s0-.07,0-.11h1.67l-1.24-6.13-1,.48v0a3.3,3.3,0,0,0-1.37-2.6,1.63,1.63,0,0,0,.09-.19,6.45,6.45,0,0,0,.76-3,9.44,9.44,0,0,0-.52-2.45c-.08-.26-.21-.65-.31-.95h1.81l-.46-2.31.63-.31-.77-.38-.48-2.48-.47.09.47-1.88-1.91-.61c-1.17-.36-2.18-.64-3-.82s-1.74-.34-2.67-.46l-1-.14-.46.46-.74-.25-.58.13a10.09,10.09,0,0,1-1.6.21c-.68.06-1.23.08-1.37.1a19.45,19.45,0,0,0-5.81,0l-.57.14-.41.42a3.05,3.05,0,0,0-.86,2l-.12.68a5.67,5.67,0,0,0,1.16,3.66l.38.47.56.21.39.13a6.56,6.56,0,0,0,2.25,3.82,3.58,3.58,0,0,1-.17.51,4.78,4.78,0,0,0-.5,1.83V65l-4.25-.77,3.94,3.9-.51.52,1.2.4v.1h0a3.44,3.44,0,0,0-.21,1h-1.06l1.06,1.1v.48l.31.11a7.19,7.19,0,0,0-.31,2.6v2.12h1.87l.05.07.21.19a2.41,2.41,0,0,0,0,.38,3.66,3.66,0,0,0-1.17,2.51,5.6,5.6,0,0,0,.93,2.72h-6.61v-.7l.59-.59-.61-1.35a4.25,4.25,0,0,0-.46-.8c.12-.23.22-.45.31-.66a4,4,0,0,0,.24-2.82l-.24-1-.23,0s0-.08,0-.12h2.25l-2.36-5.92-.4.19a3.31,3.31,0,0,0-1.4-2.59,6.35,6.35,0,0,0,.9-3.14,8.79,8.79,0,0,0-.57-2.49c-.08-.25-.2-.62-.3-.91h1.22V57.39l.82-.4-.82-.41V54l-1,.19.47-1.87-1.88-.63a26.79,26.79,0,0,0-3.16-.84c-.91-.18-1.72-.33-2.43-.44l-1.08-.19-.5.5h0l-.77-.27-.63.15a7.9,7.9,0,0,1-1.47.2c-.68.06-1.26.08-1.43.1a19.1,19.1,0,0,0-5.74,0l-.57.14-.42.42a3.07,3.07,0,0,0-.77,1.26l-.27.79-.1.66a5.24,5.24,0,0,0,1.49,3.84l.71.47.46.17A6.51,6.51,0,0,0,95.6,62.5v.09l-.27.49a4.79,4.79,0,0,0-.5,1.82V65l-1.52-.31,1.59,3.22-.8.82,1.1.37v0l.07.06a2.82,2.82,0,0,0-.15,1.07H94l1.57,1.56a6.74,6.74,0,0,0-.37,2.73v2.12H97l.33.32a2.35,2.35,0,0,0,0,.26A3.7,3.7,0,0,0,96,79.77c0,1.19.63,2.49,2.14,4.39a13,13,0,0,1,1.23,1.66v1.91l1.9.2a29.73,29.73,0,0,0,3.25.19,18.14,18.14,0,0,0,3.22-.38c1.23-.24,2.7-.6,4.44-1.08l9.12-2.51h0c.53.65,1,1.18,1.26,1.59a1.87,1.87,0,0,1,.3.6l.36,1.43,1.46.16a26.51,26.51,0,0,0,3,.19,18.41,18.41,0,0,0,3.3-.38c1.23-.25,2.69-.6,4.37-1.08l5.2-1.49-3.66-1.86Zm-23.48-9,0-.17.07,0A1.26,1.26,0,0,1,113.46,72.94Zm23.19.16Zm-.05,11.08,0-.08h0Z"></path><path class="b" d="M216.62,181.88l-.05-.29a7.06,7.06,0,0,1-.1-1.51,13.6,13.6,0,0,1,.3-2.65l.24-1.21-.94-.82a1.47,1.47,0,0,1-.49-.8,7.21,7.21,0,0,0,.94-2.52,17.11,17.11,0,0,0,.27-3.37c-.41-3.29-.17-4.12-.15-4.19l.22-.52-.07-.57a23.78,23.78,0,0,1-.15-2.8v-3.32c0-2.36.05-5.74.17-10.1.23-4.65.35-8.18.35-10.56,0-2.88-.12-5.62-.36-8.15-.22-2.32-.51-4.52-.87-6.56a22.61,22.61,0,0,0,.71-6.38c0-1.16,0-2.19.08-3.07a11.32,11.32,0,0,1,.2-1.69l.31-2.11-1.16-.31a9.14,9.14,0,0,0,.74-4l-.06-1.91-.41,0a7.81,7.81,0,0,0,.82-3.59,7.65,7.65,0,0,0-.12-1.21A4,4,0,0,1,217,97l-.4-3.34-.23-.23a9.39,9.39,0,0,0,.63-3.52,24.43,24.43,0,0,0-.77-4.84,18.79,18.79,0,0,1-.55-2.31,11.25,11.25,0,0,1-.15-1.49,4.84,4.84,0,0,1,.05-.61,7.69,7.69,0,0,0,.13-1.38v-.86l-3.64-3.77h-6.14c-.83,0-1.78-.06-3.06-.17a14.25,14.25,0,0,0-3.91.55,12.68,12.68,0,0,0-2.61,1c-.75-.08-1.52-.14-2.31-.19-1.05-.06-2.19-.09-3.45-.09-.38,0-1,0-1.85.1l-.78.06V75l-5.89.62v1a21.37,21.37,0,0,0-6.39,2.47l-1.44.85.48,1.6a3.83,3.83,0,0,1,.17,1.11,9.49,9.49,0,0,1-.21,1.72c-.36,1.7-.6,3.07-.73,4.13s-.18,1.85-.18,2A7,7,0,0,0,177,96.91l.44.3.53.06a47.14,47.14,0,0,0,4.82.19l4.29,0c.41,0,1.94,0,7.38.77l0,.63q.36,5.32.52,10.26c.12,3.29.18,6.39.18,9.35q.17,7.8.43,15.93c.17,5.41.31,10.71.43,15.84v4.88c0,1.77.06,3.35.18,4.57q.15,10.49.34,16.24c.09,3,.09,4.51.08,5.31a4.17,4.17,0,0,0-1.28,2.86,11.27,11.27,0,0,1-2.3,1.37,25.92,25.92,0,0,1-9.89,2,21.72,21.72,0,0,1-6.43-.84c-2.43-.62-5.21-1.45-8.29-2.47l-1.61-81.32q-.16-6.62-.53-12.13c-.23-3.71-.46-6.54-.7-8.47l-.09-.75-.55-.53c-2.92-2.78-7.58-4.13-14.26-4.13h-.88l-.63.63c-.47.48-.92.94-1.33,1.38l-1.26,1.3-.62.62v.88c0,7.73.18,14.68.52,20.65a119.15,119.15,0,0,0,1.69,14.88,13.56,13.56,0,0,0-.14,2.07,17.31,17.31,0,0,0,.18,2.59,9.79,9.79,0,0,1-.22,1.87,2.69,2.69,0,0,1-.4,1.09l-.73,1,.48,1.13a13.27,13.27,0,0,1,.62,3.67c.17,2.06.37,4.68.6,7.8a35.32,35.32,0,0,0,2.61,12.23l-2.92,6-1.15,2.75,1.45.16a5.18,5.18,0,0,0-.52,2.25,9.39,9.39,0,0,0,.24,1.62,3.29,3.29,0,0,1,.11.72v.52l.24.46A13.88,13.88,0,0,1,150,169a25.9,25.9,0,0,1,.4,4.68c0,1.57-.17,4.05-.51,7.39s-.53,5.9-.53,7.65v4.26l.85.64a12.23,12.23,0,0,1,1.06.91l.57.57c0,.46-.07,1.3-.21,2.8a5.75,5.75,0,0,0,.43,3.29,9.41,9.41,0,0,0,1.56,2.35l.63.71h1a10.37,10.37,0,0,1,1.12.06,7.25,7.25,0,0,1,1.28.34c.69.12,1.31.21,1.86.28a13.07,13.07,0,0,0,1.36.09,6.69,6.69,0,0,0,4.69-2.12l1.34,1.35,1.88,0,.64-.72a2.25,2.25,0,0,0,.56-1.28,24,24,0,0,1,3.95-.41,16.39,16.39,0,0,0,5.84-1.09,17.41,17.41,0,0,0,3.92.82,55.82,55.82,0,0,0,6,.28h10.11a16.23,16.23,0,0,0,4.85-.84,43.14,43.14,0,0,0,5.55-2.29,17.74,17.74,0,0,0,5.25-4.36,7.69,7.69,0,0,0,1.87-5.27,26.07,26.07,0,0,0-.36-3.95Z"></path><path class="c" d="M317.17,39.61l-.81-.91c-.12-.13-.29-.25-.42-.38h0a13.45,13.45,0,0,0-5.53-2.66,24.09,24.09,0,0,1-2.66-.84h0a6.32,6.32,0,0,1-1.42-.73l-1.77-1.3-1.69,1.42a10.23,10.23,0,0,1-5.78,2,32.59,32.59,0,0,0-7.63,1.41l-.87.32-.51.78a67.09,67.09,0,0,0-3.67,6.36,37.13,37.13,0,0,0-2.26,5.25L282,51l.52,3.53a6.28,6.28,0,0,0-1.3,2.1l-.2.54-.88.7.05,1.77q.17,5.88.55,12.37c.24,4.27.44,8.42.61,12.75l.17,1.12a5.11,5.11,0,0,1,0,1.12c.07,7.08-.1,13.24-.47,18.29a48,48,0,0,1-.93,6.76c-2.51-3.11-7.27-10-16.07-25.41-1.28-2.49-2.33-4.53-3.36-6.57L258.53,76l-.89-.41a3.16,3.16,0,0,1-.82-.61c-.4-.37-.79-.71-1.18-1q-3.91-9.33-6.68-15.65c-1.11-2.51-2.08-4.64-3-6.39l1.71-.26-3.81-3.92c-4.16-4.28-9.86-5.92-16.93-4.88-5.58.83-9.66,3.37-12.12,7.57l-.8,1.35.74,1.38c2.15,4,4,7.3,5.47,9.84l3.25,5.38a34.13,34.13,0,0,0,6.42,10,22.42,22.42,0,0,0,2.59,2.86l3.75,3.71c11.54,24.23,12.71,25.9,13.15,26.53L256.2,121l-.22-1.43c1.55,2,2.91,3.78,4.11,5.4,3.27,4.43,4.18,6.34,4.44,7.09l1.2,2.08c.36.57.73,1.22,1.12,1.95s1,1.75,1.55,2.64l1.17,2.15c4.16,6.8,4.55,8.52,4.59,8.58L274,151l1.23.94A48.69,48.69,0,0,1,289.69,169a64.19,64.19,0,0,1,2.9,6.38q1.29,3.18,3,7l-8.81,1.63c-7,1.3-13.49,2.36-19.21,2.85-2.49.21-4.78.4-6.89.56l-1,.07-.71.65c-.11.1-1.24,1-7.29,2.95a12.84,12.84,0,0,0-8.16,7.54l-1.36,4.42,1.63-.25c.12.6.28,1.35.51,2.27a33.08,33.08,0,0,0,1.25,3.9c.5,1.47.92,2.81,1.25,4s.67,2.46,1,3.58L249,220.9l3.33-3a11.59,11.59,0,0,1,3.37-1.76c1.92-.78,4.28-1.58,7-2.42,3.55-1,6.42-1.7,8.61-2.18a25.82,25.82,0,0,1,4.77-.7,7,7,0,0,0,1.49-.39,21.35,21.35,0,0,1,6.19.07c5.92.79,10.42.5,14.72-3.22l1-.28a2.66,2.66,0,0,1,.58-.2s.42.12,1.25,1.06l2.09,2.4,2.11-2.38a6.36,6.36,0,0,1,5.62-2.11c5.75.71,9.57.5,12.05-.64l.91-.68a34.47,34.47,0,0,0,2.58-3.33c.77-1.13,1.53-2.19,2.27-3.2l.41-.77a5.27,5.27,0,0,0,.18-2.46,23.64,23.64,0,0,0-2.9-7.69,7.05,7.05,0,0,0-.45-2.31,9.92,9.92,0,0,0-4.71-6.14,18.65,18.65,0,0,1-2.22-5.91l-.39-2.64-1.1-.68c-.32-.2-.64-.45-1-.68a9.92,9.92,0,0,0-.09-1.5l-.41-2.77-2.24.34c-.36-.65-.74-1.39-1.16-2.26l.88-1.18-1.32-1.68c-3.05-3.9-5.74-7.55-8-10.85a79.85,79.85,0,0,1-5.19-8.45v-.17l-.33-.32a5.29,5.29,0,0,1-.33-.87l-1.41-4.08a24.66,24.66,0,0,0-1.49-3.47c-.23-2.5.62-5.51,2.36-8.69l4.51-6.08.11-.65a7.49,7.49,0,0,0,0-2.46l-.07-.49c.13-.33.25-.65.36-1l.39-1.22.14-.91c0-1.22-.1-2.58-.24-4.1s-.26-2.61-.45-3.7c-.51-1.76-.63-5.24,1.69-11.75,3.24-7.92,4.13-10.88,4.29-12.38,1.39-3,2.07-7.13,2.06-12.35.07-1.65.11-3.22.13-4.71,0-1.16.05-2.22.15-3.19a98.64,98.64,0,0,0,4.07-9.36c.4-1.12.69-2.15,1-3.17l2,1.37-1-6.68h-.1Z"></path><path class="b" d="M370.43,74l-.92-.22A7.54,7.54,0,0,0,365.13,75c-.57.18-.88.22-.81.27a1.82,1.82,0,0,1-.46-.55l-.63-1h-1.16a31.47,31.47,0,0,0-6.34.57,13.39,13.39,0,0,0-4.05,1.44,52.3,52.3,0,0,0-11.74-1.14H329.53v-.69h-5.89l.6,2.38a3.48,3.48,0,0,0-2.33,3.29v5l5,4.76h.85c3.8,0,7.76,1.48,11.77,4.39,0,.65-.07,1.26-.07,1.83v3.63a11.78,11.78,0,0,0,1.68,5.47l.61,1c.07,1.94.12,4.9.12,9.39,0,3.28-.63,5.84-1.86,7.59l-.49.69.12.83c.34,2.45.63,5.43.85,8.88s.34,7.55.34,12.09q0,2.3-.25,7.41T340,166l-.35,8.2c-.12,2.69-.17,5.11-.17,7.27v2.9a20,20,0,0,0,.19,2.85l.29.8a7.14,7.14,0,0,1,.9,3.74v3.37a8.55,8.55,0,0,0,2.92,6.9l.41.35.53.1a10,10,0,0,0,2,.22c2.75,0,5.84-1.76,9.46-5.38l.62-.62v-6.32a7.82,7.82,0,0,0,2.4-3,13.89,13.89,0,0,0,1.14-4.84c.14-4.72.57-6.45.81-7.06l.22-.55-.1-.59c-.17-1-.34-2.38-.5-4.15l-1.47-19.58c-.34-3.2-.64-6.24-.87-9.1s-.53-5.59-.92-8.19l-1-6.57c-.3-2-.58-3.47-.82-4.43l-.08-.34a4.09,4.09,0,0,1,.47-.95,9.48,9.48,0,0,0,.89-3.9,4.46,4.46,0,0,0-1.21-3V105l3-12.18.42-.26a10.36,10.36,0,0,1,1.85-.82A12.32,12.32,0,0,0,364.72,90a11.06,11.06,0,0,0,3.23.46,9.69,9.69,0,0,0,8.31-4.28l.38-.55V85a10.55,10.55,0,0,1,.07-1.12,18.41,18.41,0,0,0,.11-2.08C376.82,78.64,374.67,76,370.43,74Z"></path><path class="b" d="M462.41,189.51l-2.51-4.86a12.17,12.17,0,0,1-.66-1.53,13.15,13.15,0,0,1-.48-3.69,9.07,9.07,0,0,1,.07-.94,8.52,8.52,0,0,0,.08-1.4c1-8.72.94-11.21.78-12.32l-.21-.65a13.52,13.52,0,0,0-.69-1.2l.14-2.87q.35-11.34.43-20.05t.09-14.68c0-10.17-.11-19.29-.35-27.11-.24-8.07-.58-14.83-1-20.68l-.13-1.71-1.7-.23c-1.64-.23-3.32-.5-5.05-.81s-3.52-.64-5.3-1l-.33-.06-.33,0c-.91.12-2.22.26-3.92.43a48.88,48.88,0,0,0-5.6.9,51.28,51.28,0,0,1-5.47.91,38.52,38.52,0,0,1-4,.25c-2.06,0-5.11-.9-9.07-2.66-6-2.7-7.94-3-9-3a7,7,0,0,0-2.45.46v-.6L402,66.67h-.89a28.48,28.48,0,0,1-4-.45V64.76h-2.12l-.72,0V62l-2,2.95a3.51,3.51,0,0,0-1.33.5l-.77-.76V66.6c-.05.19-.17.31-.17.55a1.77,1.77,0,0,0,.17.59v.35l-2.21,3.52h2.31l-1.39,7,1.35.75c.18.1.46.26.46,1.08a14.39,14.39,0,0,1-.15,2c-.11.77-.28,1.68-.5,2.75a32.28,32.28,0,0,0-.74,5.51,10.65,10.65,0,0,0,.18,2.16,2.93,2.93,0,0,0,.94,2.18,3.73,3.73,0,0,0,1.92.91c.58,3.91,1.1,7.06,1.59,9.58a59.42,59.42,0,0,0,1.69,7.12,2.64,2.64,0,0,1-.25,1,6.78,6.78,0,0,0-1.13,3.12,4.4,4.4,0,0,0,1.41,3.15c0,.22,0,.44.07.66a12.93,12.93,0,0,1,.07,1.55c0,5.35-1.17,13-3.49,22.85l-.37,1.57,1.42.78c.61.33,1.53.9,2.77,1.69s2.81,2,4.79,3.52c6.31,4.58,8.83,5.16,10.32,5.16h10.58v.69h5.65l-.46-2.38a3.49,3.49,0,0,0,2.26-3.29v-3.38l-4.79-4.79h-.88c-3.85,0-7.83-1.47-11.85-4.38,0-.46.05-.92.09-1.35a22,22,0,0,0,.14-2.35l0-1.82a19.55,19.55,0,0,0-.68-2.94,10.47,10.47,0,0,0-1.29-2.65l-.56-.83c0-.28,0-.58,0-.89q-.09-3.18-.09-8.41a11.81,11.81,0,0,1,1.89-6.77l.45-.68-.11-.8q-.51-3.66-.77-6.63c-.17-2-.25-3.73-.25-5.35V94.12c0-.28,0-.68.07-1.19.65-.1,1.27-.18,1.87-.24a25.81,25.81,0,0,1,2.68-.16c4.51,0,5.14,1.88,5.14,3.92V99.6l2.92-1.17a7.67,7.67,0,0,1,2.92-.54c.75,0,1.83-.23,7.46-3.14,4.78-2.78,6.53-3.09,7.06-3.09a2,2,0,0,1,1,.26c.8,5.29,1.82,8.54,3.23,10.29v1.73a7.06,7.06,0,0,1-.76.6c-.4.36-.7.61-.92.77s-.55.45-.71.6l-.64.63v.89a1.41,1.41,0,0,1-.2.6c-.27.53-.69,1.23-1.3,2.17a26,26,0,0,0-1.41,2.51,5.44,5.44,0,0,0-.64,2.33c0,2.69-.11,6.6-.34,11.79s-.17,8.94-.17,11.55c0,3.5.12,6.72.36,9.58.2,2.54.5,5,.91,7.35A10.21,10.21,0,0,0,438,162l-1.18.47v6.16l.56.61c.5.55,1,1.09,1.42,1.62a7,7,0,0,1,.71,1v3.27l1.52-.76-.26.9a21.14,21.14,0,0,1-1,2.9l-.7,1.38.64.63v.24c0,.89-.06,2.12-.17,3.7-.1,1.43-.24,3.14-.43,5.12l-.29.21h0a2.78,2.78,0,0,0-1,.17h-1.11a2,2,0,0,1-1.41-.55l-.4-.38-.53-.13a78.93,78.93,0,0,0-16.54-1.62c-8.56-.21-14.57-.47-17.88-.78a9.54,9.54,0,0,0-6.46-2.42,7.81,7.81,0,0,0-7.36,4.74l-.21.93a6.25,6.25,0,0,0,.23,1.56c.13.52.33,1.14.58,1.85a11.15,11.15,0,0,1,.57,1.87c0,.25-.27.76-1,1.44l-1.66,1.49,1.57,1.59c.51.51,1,1,1.55,1.41a15.41,15.41,0,0,1,1.23,1.11l.62.62,1.41-.05a8.8,8.8,0,0,0,1.62.22,4.87,4.87,0,0,0,3.2-1.18c2.42.1,4.5.25,6.23.43l3.06,1.13c.29.11.52.2.36,0l.62.61h1.58l4,7.42v-7.24a4.44,4.44,0,0,1,.55.1l.91.23.78-.52a25.1,25.1,0,0,1,2.45-1.42,7.28,7.28,0,0,1,2.59-.64,31.11,31.11,0,0,0,5.22-.77l1.24,1.61h1c.76.12,1.52.22,2.29.28.54,0,1,.07,1.33.08a3.24,3.24,0,0,0,1.05.19l.19,0a13.08,13.08,0,0,0,5.79-.5c.46,0,.66.06.69.06h0a9.39,9.39,0,0,0,2,.6c.65.11,1.22.22,1.7.32a8,8,0,0,0,4.38-.17,22.07,22.07,0,0,0,10.26-5.3,14.82,14.82,0,0,0,4.66-8.31Z"></path><rect class="d" x="197.42" y="70.74" width="10.27" height="35.15" transform="translate(113.46 -113.89) rotate(42.66)"></rect><path class="e" d="M263.39,74.22l-.27-6.33L266,53.36a39.12,39.12,0,0,0-.81-18.65h0A39,39,0,0,0,243.3,9.85l-3.62-1.58A100.24,100.24,0,0,0,200.77,0h0a29.3,29.3,0,0,0-23.09,10.91h0a29.26,29.26,0,0,0-4.87,8.77l-3,8.53a9.41,9.41,0,0,1-5.91,5.85l-8,2.7a1.43,1.43,0,0,0,0,2.71l31.93,11.44,2.79,13.6a12.32,12.32,0,0,0,7.62,9l4.41,1.67a84.06,84.06,0,0,0,39.81,4.71l18-2.21A3.34,3.34,0,0,0,263.39,74.22Z"></path><path class="f" d="M155.89,36.76l8-2.7a9.41,9.41,0,0,0,5.91-5.85l3-8.53a29.26,29.26,0,0,1,4.87-8.77h0A29.3,29.3,0,0,1,200.77,0h0a100.24,100.24,0,0,1,38.91,8.27l3.62,1.58a39,39,0,0,1,21.93,24.86h0A39.12,39.12,0,0,1,266,53.36l-2.92,14.53.27,6.33a3.34,3.34,0,0,1-2.94,3.48l-3.53.43a4.9,4.9,0,0,1-1.81-3.59l-.27-6.29a8.39,8.39,0,0,1,.15-2l2.92-14.52A30.76,30.76,0,0,0,240,17.45l-3.62-1.57a92,92,0,0,0-35.69-7.59A21,21,0,0,0,180.64,22.4l-3,8.53a17.85,17.85,0,0,1-11.11,11l-2,.66-8.69-3.11A1.43,1.43,0,0,1,155.89,36.76Z"></path><g class="g"><path class="h" d="M241,74.44c-.48-2.84-.95-5.68-1.45-8.52s-1-5.66-1.53-8.5l-.39-2.12-.1-.53,0-.27,0-.13v-.1l0-.12-.12-.53-.06-.26c0-.09-.06-.22-.09-.33l-.21-.69c-.07-.23-.15-.41-.23-.62a13,13,0,0,0-.53-1.21c-.19-.4-.41-.78-.63-1.16s-.46-.75-.73-1.1A15.12,15.12,0,0,0,231,44.6a14.41,14.41,0,0,0-2.35-1.28c-.41-.16-.82-.34-1.25-.47l-.64-.2-.54-.15-8.32-2.32-8.33-2.26-4.16-1.13-1.05-.28-.26-.07-.13,0-.24-.06-.53-.12a17,17,0,0,0-2.7-.37,15.73,15.73,0,0,0-5.46.62,14.1,14.1,0,0,0-2.62,1.06c-.43.22-.84.47-1.26.74l-.62.45-.32.25-.17.15a2.85,2.85,0,0,0-.24.22l1.18-.77-.38.12c-.14,0-.27.08-.43.1a9.16,9.16,0,0,1-1,.11,14,14,0,0,1-2.28-.12l-1.23-.21c-.42-.09-.83-.18-1.25-.29s-.85-.21-1.27-.34-.85-.24-1.28-.37l-1.29-.4-1.29-.43-2.6-.91-1.29-.47-1.29-.49-1.27-.48-1.18-.47-.27-.11a2.21,2.21,0,0,0-2.55,3.41,12.59,12.59,0,0,0,1.19,1.3,15.73,15.73,0,0,0,1.22,1.1c.42.35.84.68,1.28,1s.88.6,1.32.89a32,32,0,0,0,5.71,2.84,31.39,31.39,0,0,0,3.12,1c.53.14,1.08.25,1.63.35s1.12.19,1.69.26a19.51,19.51,0,0,0,3.61.11,14.87,14.87,0,0,0,1.95-.25c.33-.06.68-.17,1-.26s.69-.23,1-.35l1.18-.77,0,0,0,0,.1-.08.25-.19a6,6,0,0,1,.6-.36,6.87,6.87,0,0,1,1.36-.58,8.85,8.85,0,0,1,3.06-.39,12.74,12.74,0,0,1,1.58.17l.53.1h0l-.11,0h0l.07,0,.13,0,.26.06,1.05.25,4.2,1,8.39,2,8.42,1.94.5.12.39.1c.27.06.52.17.78.25a9.56,9.56,0,0,1,1.48.71,9.26,9.26,0,0,1,2.51,2.12c.19.21.34.45.51.67s.31.46.45.71.27.49.38.74.13.27.17.38l.13.34.07.18.07.26.15.52.25,1,.54,2.09c.72,2.78,1.43,5.57,2.17,8.35s1.49,5.57,2.26,8.34a1.78,1.78,0,0,0,3.48-.76Z"></path></g><g class="g"><path class="i" d="M156,39.38,161,41l13.31,4.25,8.89,2.81,4.87,1.52.15,0,.08,0c.17,0-.19-.07-.14,0h0l.15.07h0a1,1,0,0,1,.19.14,1.34,1.34,0,0,1,.32.39,2.29,2.29,0,0,1,.1.23l.07.38c.09.44.17.88.25,1.33.67,3.55,1.36,7.22,2.07,10.94a16.2,16.2,0,0,0,.81,3.19,11.22,11.22,0,0,0,4.64,5.48,11.47,11.47,0,0,0,1.64.83l1.37.54,2.69,1c.92.36,1.86.71,2.79,1,1.88.66,3.72,1.23,5.66,1.76,1.79.48,3.79.95,5.64,1.32s3.76.67,5.61.9a83.42,83.42,0,0,0,10.74.63,81,81,0,0,0,9.6-.62l7.74-.95c2.32-.29,4.35-.61,6-.87l2.24-.39,1.66-.34c.9-.2,1.39-.34,1.39-.34a1.67,1.67,0,0,0,1.17-2.06,1.68,1.68,0,0,0-1.57-1.23l-1.36,0-1.65,0H256c-1.68,0-3.74,0-6.1.14s-5,.29-7.94.63a83.09,83.09,0,0,1-9,.65,77.39,77.39,0,0,1-10-.49c-1.73-.19-3.48-.47-5.26-.77s-3.47-.69-5.35-1.16c-1.73-.43-3.55-1-5.3-1.54-.89-.29-1.76-.59-2.64-.92l-2.71-1L200.28,68a6.8,6.8,0,0,1-.95-.44,6.61,6.61,0,0,1-1.62-1.31,6.53,6.53,0,0,1-1.13-1.76A12.58,12.58,0,0,1,196,62.2l-2.41-10.88-.3-1.31a6.62,6.62,0,0,0-.25-.92,5.84,5.84,0,0,0-.46-1,5.65,5.65,0,0,0-1.43-1.57,6,6,0,0,0-.93-.55l-.28-.12-.15-.06,0,0-.21-.07-.08,0-.16,0-4.91-1.37-9-2.48-13.48-3.67-5.12-1.37a1.36,1.36,0,0,0-.77,2.61Z"></path></g><path class="j" d="M208.54,72.87s.48.21,1.35.56l1.55.61c.63.22,1.31.45,2.07.69s1.6.49,2.48.69,1.83.45,2.81.64,2,.4,3,.53,2.1.27,3.16.38l1.6.11,1.58.08c.52,0,1,0,1.56,0s1,0,1.52,0c1,0,2-.07,2.87-.12s1.78-.15,2.57-.25,1.51-.2,2.15-.31,1.2-.21,1.65-.31c.91-.19,1.43-.32,1.43-.32s-.54,0-1.46,0h-1.67l-2.15,0-2.55,0-2.82-.1c-1,0-2-.12-3-.17l-1.55-.1-1.55-.14c-1-.1-2.08-.19-3.1-.32s-2-.24-3-.37l-2.8-.41-2.51-.4-2.12-.37c-.63-.13-1.19-.22-1.64-.3C209.06,72.94,208.54,72.87,208.54,72.87Z"></path><path class="j" d="M171.73,41.7s2.09,1,5.3,2.18c.8.31,1.67.65,2.6,1s1.9.69,2.91,1,2.06.73,3.13,1.07l3.25,1,.82.25.41.13.1,0h.06l-.09,0h0l.17.09,0,0,.09.08a1.42,1.42,0,0,1,.18.22,3.37,3.37,0,0,1,.33.6,17.64,17.64,0,0,1,.87,3c.23,1,.49,2,.73,3s.48,1.86.7,2.69c.89,3.32,1.63,5.5,1.63,5.5s-.18-2.3-.67-5.7c-.12-.85-.25-1.77-.42-2.74s-.31-2-.5-3a15.51,15.51,0,0,0-.84-3.37,4.71,4.71,0,0,0-.47-.88,2.81,2.81,0,0,0-.35-.44l-.23-.21a2.13,2.13,0,0,0-.33-.23,1,1,0,0,0-.21-.1l0,0-.13,0-.05,0-.1,0-.41-.14-.81-.26-3.27-1c-1.07-.33-2.14-.62-3.17-.92s-2-.56-3-.82-1.85-.48-2.69-.69C174,42.12,171.73,41.7,171.73,41.7Z"></path><g class="k"><path class="l" d="M237.06,78.82c.87-.73-3.7-14.41-4-15.7-1.67-6.73-3.55-12.36-11-15a57,57,0,0,0-7-1.26c-3.25-.33-2,2.81-.76,3.22,2.17.72,5.21,1.73,5.61,1.9,5.44,2.33,4.85,9.18,5.73,14.19.69,3.93,1.13,8.8,1.82,12.73Z"></path></g><g class="m"><path class="l" d="M197.91,11.18a1.89,1.89,0,0,0-.31.08c-.23.06-.51.16-.88.28s-.78.28-1.26.49l-.76.33-.81.41c-.29.14-.58.31-.88.48s-.61.34-.91.54c-.61.41-1.27.82-1.89,1.33-.32.25-.66.48-1,.76l-.94.83c-.32.28-.62.59-.91.9l-.9.93c-.57.65-1.11,1.33-1.64,2s-1,1.4-1.43,2.07l-1.16,2c-.37.65-.63,1.3-.91,1.89a17.25,17.25,0,0,0-.71,1.63l-.47,1.29-.41,1.12a4.07,4.07,0,1,0,7.64,2.78,3.83,3.83,0,0,0,.19-.72l0-.26s.06-.34.15-.93l.17-1.08a12.4,12.4,0,0,1,.3-1.38c.13-.5.23-1.06.42-1.62l.59-1.77c.25-.59.51-1.21.78-1.83s.64-1.21,1-1.82l.56-.87a6.42,6.42,0,0,1,.59-.85c.2-.28.41-.55.61-.82s.44-.5.65-.76c.42-.51.89-.94,1.32-1.37.21-.22.44-.4.65-.59s.43-.37.64-.53l.6-.47.56-.39c.35-.25.68-.43.93-.59l.58-.32a1.85,1.85,0,0,1,.22-.11,1.63,1.63,0,1,0-1-3.1Z"></path></g><g class="n"><path class="l" d="M251.87,65.44l.21-.85c.13-.53.3-1.28.5-2.24a79.15,79.15,0,0,0,1.19-8,57.76,57.76,0,0,0,.06-11.6A35.49,35.49,0,0,0,252.47,36a23.16,23.16,0,0,0-3.33-6.77l-.3-.4-.11-.15,0,0-.06-.07-.12-.15-.51-.6c-.38-.43-.89-1-1.33-1.42A30.49,30.49,0,0,0,244,24.11a39.84,39.84,0,0,0-5.61-3.57,61.38,61.38,0,0,0-10.47-4.26c-3.11-1-5.74-1.59-7.6-2-.93-.19-1.67-.33-2.18-.42l-.82-.13a2.93,2.93,0,0,0-1.16,5.74l.13,0,.65.16c.45.11,1.11.28,2,.51,1.69.47,4.1,1.2,6.88,2.28a55.78,55.78,0,0,1,9,4.38A32.52,32.52,0,0,1,239.12,30,23.37,23.37,0,0,1,241,31.89c.15.16.25.3.37.45l.18.21a2.16,2.16,0,0,1,.2.25l.47.63.11.16.06.07,0,0c-.15-.2,0,0-.07-.08h0l.16.24a14.84,14.84,0,0,1,1.81,4.49,26.19,26.19,0,0,1,.68,5.11,48.45,48.45,0,0,1-.69,9.7,66.6,66.6,0,0,1-1.49,6.89c-.22.82-.41,1.45-.54,1.87l-.19.59,0,.1a5.1,5.1,0,1,0,9.71,3.14C251.81,65.66,251.84,65.54,251.87,65.44Z"></path></g><path class="o" d="M239.28,51.93h0a2.77,2.77,0,0,0,3.38-2h0a2.76,2.76,0,0,0-2-3.38h0a2.76,2.76,0,0,0-3.38,2h0A2.77,2.77,0,0,0,239.28,51.93Z"></path><g class="g"><path class="p" d="M237.83,48.28l-.05,0-.14.15a1.05,1.05,0,0,0-.17.27,2.08,2.08,0,0,0-.15.4,2.22,2.22,0,0,0,0,1.08,2.26,2.26,0,0,0,.25.58,3.27,3.27,0,0,0,.41.51,2.78,2.78,0,0,0,.54.38,2.63,2.63,0,0,0,.59.22c.11,0,.2,0,.3,0h.28a2.45,2.45,0,0,0,.51-.09,1.76,1.76,0,0,0,.64-.37,1.32,1.32,0,0,0,.19-.21l-.27-.06a3.58,3.58,0,0,1-.58-.17l-.33-.15-.17-.08-.15-.1a3.12,3.12,0,0,1-.59-.44,3.64,3.64,0,0,1-.48-.56,4.51,4.51,0,0,1-.37-.63c0-.1-.09-.21-.12-.3a1.71,1.71,0,0,1-.09-.27,1.37,1.37,0,0,1,0-.19Z"></path></g><g class="q"><path class="l" d="M241.43,50.46a1,1,0,0,0,.23-.13,1.17,1.17,0,0,0,.23-.22,1.24,1.24,0,0,0,.23-.36,1.3,1.3,0,0,0,.15-.47,1.93,1.93,0,0,0,0-.59,2.08,2.08,0,0,0-.58-1.14,1.69,1.69,0,0,0-.53-.39,2,2,0,0,0-.62-.2l-.29,0L240,47a1.66,1.66,0,0,0-.49.16,1.42,1.42,0,0,0-.56.45.87.87,0,0,0-.14.23l.25,0a3.45,3.45,0,0,1,.59,0,2.14,2.14,0,0,1,.35.06.61.61,0,0,1,.18,0l.18.06a3.49,3.49,0,0,1,.31.18,2.17,2.17,0,0,1,.29.24,2.11,2.11,0,0,1,.41.61,2.35,2.35,0,0,1,.11.35,1.23,1.23,0,0,1,.06.36c0,.09,0,.22,0,.31a1.93,1.93,0,0,1,0,.27A1.78,1.78,0,0,1,241.43,50.46Z"></path></g><g class="g"><path class="e" d="M240.91,51a.35.35,0,0,0,.26,0,.35.35,0,0,0,.13-.47l-1.86-3.37A.33.33,0,0,0,239,47a.35.35,0,0,0-.14.47l1.86,3.36A.34.34,0,0,0,240.91,51Z"></path></g><path class="o" d="M185.65,37.78h0a2.78,2.78,0,0,0,3.39-2h0a2.79,2.79,0,0,0-2-3.39h0a2.79,2.79,0,0,0-3.39,2h0A2.78,2.78,0,0,0,185.65,37.78Z"></path><g class="g"><path class="p" d="M184.21,34.13l-.06,0a1.08,1.08,0,0,0-.13.15,1,1,0,0,0-.18.27,2.59,2.59,0,0,0-.15.4,2.11,2.11,0,0,0,0,1.08,2.42,2.42,0,0,0,.25.58,2.78,2.78,0,0,0,.41.51,2.85,2.85,0,0,0,.53.38,2.91,2.91,0,0,0,.6.22,2.72,2.72,0,0,0,.3,0h.28a2.47,2.47,0,0,0,.5-.09,1.76,1.76,0,0,0,.64-.37.88.88,0,0,0,.19-.21l-.26-.06a4.16,4.16,0,0,1-.59-.18,2.33,2.33,0,0,1-.33-.14l-.16-.08-.16-.1a3.06,3.06,0,0,1-.58-.44,4.37,4.37,0,0,1-.49-.56,4.43,4.43,0,0,1-.36-.63c0-.1-.1-.21-.13-.3s-.06-.19-.08-.27,0-.14-.06-.19Z"></path></g><g class="q"><path class="l" d="M187.81,36.31a.87.87,0,0,0,.23-.14,1.41,1.41,0,0,0,.23-.21,1.23,1.23,0,0,0,.22-.36,1.51,1.51,0,0,0,.16-.47,1.94,1.94,0,0,0,0-.59,2,2,0,0,0-.57-1.14,1.86,1.86,0,0,0-.54-.39,1.9,1.9,0,0,0-.61-.2l-.29,0-.29,0a1.69,1.69,0,0,0-.48.16,1.39,1.39,0,0,0-.57.45,1.48,1.48,0,0,0-.14.23l.25,0a3.58,3.58,0,0,1,.6,0l.35.06.17,0,.18.07a2.58,2.58,0,0,1,.32.18,1.61,1.61,0,0,1,.28.24,2,2,0,0,1,.42.61,2.35,2.35,0,0,1,.11.35,1.73,1.73,0,0,1,0,.36,1.6,1.6,0,0,1,0,.31l0,.27Z"></path></g><g class="g"><path class="e" d="M187.28,36.81a.39.39,0,0,0,.26,0,.35.35,0,0,0,.14-.47l-1.87-3.37a.35.35,0,0,0-.47-.14.37.37,0,0,0-.13.48l1.86,3.36A.34.34,0,0,0,187.28,36.81Z"></path></g><path class="d" d="M3.35,260.82l5.07-15.21H0v-8.45H6.29v3.38H16.87l-6.63,20.28Z"></path><path class="d" d="M20.11,237.16h5.37v4.09l-2.29,6.05H19Z"></path><path class="d" d="M29.68,237.16h5.37v4.09l-2.3,6.05H28.53Z"></path><path class="d" d="M57,240.54v20.28H50.36V245.61H39v-5.07Zm-18,8.79h6.59v11.49H39Z"></path><path class="d" d="M78.85,247.1a5.94,5.94,0,0,1-4.76,6.18l4.76,7.54H60.57v-5.07h8.21l-9.46-15.21h6.76l5.14,8.15c.71-.37,1-1,1-2.33v-5.82h6.59Z"></path><path class="d" d="M94,260.82l5.07-15.21H90.65v-8.45h6.29v3.38h10.58l-6.63,20.28Z"></path><path class="d" d="M134.39,240.54v11.12c0,6.29-3,9.16-10.31,9.16H112.15l-2.3-20.28h6.39l1.69,15.21h4.93c4.12,0,5.21-1.38,5.21-4.76V240.54Zm-14.81,12.31V240.54h6.19v12.31Z"></path><path class="d" d="M154.7,240.54v25.35h-6.59V240.54Z"></path><path class="d" d="M165.82,260.82h-6.59V240.54h6.59Z"></path><path class="d" d="M176.57,252.81H170V240.54h6.59Z"></path><path class="d" d="M190.56,240.54c6.22,0,8.62,2.91,8.62,9.6v10.68H189v-5.07h3.55v-5.44c0-3.14-.61-4.7-3.25-4.7h-.5l-2.5,15.21h-6.66l2.7-15.21H180v-5.07Z"></path><path class="d" d="M220.81,240.54v20.28h-6.59V245.61H202.83v-5.07Zm-18,8.79h6.59v11.49h-6.59Z"></path><path class="d" d="M240.89,252.81H234.3V240.54h6.59Z"></path><path class="d" d="M243.42,260.82v-5.07h1.83c1.55,0,1.89-.57,1.89-2.23v-7.91h-2.43v-5.07h9v13.79c0,5-1.32,6.49-5.91,6.49Z"></path><path class="d" d="M269.38,240.54c5.11,0,7.27,2.3,7.27,8.59v11.69h-6.59V249.23c0-2.71-.58-3.62-2.6-3.62h-2.95v15.21h-6.59V240.54Z"></path><path class="d" d="M295,255.75h2.4v5.07H279.86v-5.07h8.58V245.61h-8.58v-5.07H295Z"></path><path class="d" d="M310.25,240.54c6.22,0,8.61,2.91,8.61,9.6v10.68H308.73v-5.07h3.54v-5.44c0-3.14-.6-4.7-3.24-4.7h-.51L306,260.82h-6.66l2.71-15.21H299.7v-5.07Z"></path><path class="d" d="M337.18,255.75h2.4v5.07H322v-5.07h8.58V245.61H322v-5.07h15.17Z"></path><path class="d" d="M361.62,240.54h6.59v6.56c0,5.88-3.07,8.25-7.54,8.85l3.05,9.94h-6.49l-7.81-25.35h6.49l3.28,10.62c2.23-.58,2.43-2.1,2.43-4.8Z"></path><path class="d" d="M378.76,252.81h-6.59V240.54h6.59Z"></path><path class="d" d="M400.29,247.1a6,6,0,0,1-4.77,6.18l4.77,7.54H382v-5.07h8.22l-9.47-15.21h6.76l5.14,8.15c.71-.37,1.05-1,1.05-2.33v-5.82h6.59Z"></path><path class="d" d="M413.06,240.54c5.58,0,8.12,2.1,8.12,8.25v3.79c0,6.15-2.54,8.24-8.12,8.24h-9v-5.07h7.67c2.23,0,2.87-1.05,2.87-3.85v-2.43c0-2.81-.64-3.86-2.87-3.86h-1.42v6H404V240.54Z"></path><path class="d" d="M442.43,240.54v20.28h-6.59V245.61H424.45v-5.07Zm-18,8.79H431v11.49h-6.59Z"></path><path class="d" d="M448.89,260.82,454,245.61h-8.42v-8.45h6.29v3.38h10.58l-6.62,20.28Z"></path></g></svg>